<?xml version="1.0" encoding="utf-8"?>
<svg xmlns="http://www.w3.org/2000/svg" viewBox="458.381 -14.061 401.516 395.953" xmlns:bx="https://boxy-svg.com" width="401.516px" height="395.953px"><defs><style>.cls-1{fill:#d2d296;}</style><bx:export><bx:file format="svg" path="logo-light.svg"/></bx:export></defs><g id="Layer_1" data-name="Layer 1" transform="matrix(1, 0, 0, 1, 62.093906, 9.826258)"><g transform="matrix(1, 0, 0, 1, 531.823242, -3.376756)"><path class="cls-1" d="M -3.249 145.301 L -2.619 144.751 C -2.195 143.718 -1.7 142.716 -1.139 141.751 C -2.444 142.43 -3.898 142.774 -5.369 142.751 C -4.775 143.689 -4.062 144.546 -3.249 145.301 Z"/><path class="cls-1" d="M -5.369 147.191 L -3.689 145.711 C -4.612 145.851 -5.555 145.667 -6.359 145.191 C -5.981 145.833 -5.65 146.501 -5.369 147.191 Z"/><path class="cls-1" d="M -5.739 142.061 C -5.108 141.438 -4.523 140.769 -3.989 140.061 C -4.996 140.109 -5.985 139.785 -6.769 139.151 C -6.572 140.167 -6.224 141.147 -5.739 142.061 Z"/><path class="cls-1" d="M -11.139 131.241 C -11.139 132.121 -11.029 132.981 -10.959 133.851 C -10.325 132.919 -9.89 131.868 -9.679 130.761 C -9.679 130.761 -9.849 131.061 -11.139 131.241 Z"/><path class="cls-1" d="M -10.099 135.191 C -10.099 135.191 -10.399 135.311 -10.819 135.431 C -10.819 135.871 -10.739 136.301 -10.689 136.741 C -10.423 136.254 -10.224 135.732 -10.099 135.191 Z"/><path class="cls-1" d="M 7.081 127.971 C 6.118 127.821 5.174 127.573 4.261 127.231 C 4.901 130.101 7.361 132.921 8.391 134.001 C 9.432 132.173 10.178 130.192 10.601 128.131 C 9.12 129.325 7.251 129.933 5.351 129.841 C 5.959 129.247 6.536 128.623 7.081 127.971 Z"/><path class="cls-1" d="M 6.271 137.111 C 6.946 136.263 7.564 135.371 8.121 134.441 C 6.863 134.37 5.66 133.905 4.681 133.111 C 4.967 134.543 5.462 135.924 6.151 137.211 L 6.271 137.111 Z"/><path class="cls-1" d="M 65.421 199.861 C 61.621 198.411 57.871 196.791 54.141 195.191 C 49.451 193.191 44.601 191.071 39.801 189.391 C 31.911 186.542 23.346 186.135 15.221 188.221 C 16.381 189.314 17.564 190.371 18.771 191.391 C 25.383 190.193 32.195 190.769 38.511 193.061 C 43.181 194.691 47.761 196.661 52.601 198.751 C 61.281 202.491 70.211 206.321 79.751 208.081 C 84.717 206.799 89.551 205.055 94.191 202.871 C 84.502 204.377 74.589 203.339 65.421 199.861 Z"/><path class="cls-1" d="M -8.579 125.921 C -7.973 127.817 -7.09 129.613 -5.959 131.251 C -7.319 131.071 -7.479 130.761 -7.479 130.761 C -7.419 132.351 -4.999 135.761 -4.999 135.761 C -5.704 135.669 -6.395 135.494 -7.059 135.241 C -6.442 137.078 -5.381 138.734 -3.969 140.061 C -2.33 138.019 -1.193 135.622 -0.649 133.061 C -1.825 134.003 -3.304 134.483 -4.809 134.411 C -4.809 134.411 -1.039 130.841 -0.229 127.181 C -1.196 127.55 -2.203 127.809 -3.229 127.951 C -3.229 127.951 0.351 122.951 0.451 120.621 C 0.451 120.621 0.211 121.071 -1.799 121.351 C -0.133 118.93 1.171 116.279 2.071 113.481 C 2.967 116.28 4.271 118.932 5.941 121.351 C 3.941 121.071 3.691 120.621 3.691 120.621 C 3.781 122.711 6.631 126.891 7.251 127.781 C 9.087 125.727 10.437 123.287 11.201 120.641 C 9.955 121.124 8.656 121.46 7.331 121.641 C 7.331 121.641 11.861 115.351 11.981 112.381 C 11.981 112.381 11.681 112.951 9.141 113.291 C 11.254 110.215 12.905 106.846 14.041 103.291 C 15.178 106.844 16.825 110.212 18.931 113.291 C 16.391 112.951 16.091 112.381 16.091 112.381 C 16.211 115.381 20.741 121.641 20.741 121.641 C 19.42 121.46 18.124 121.125 16.881 120.641 C 17.881 125.271 22.681 129.791 22.681 129.791 L 22.561 129.791 C 24.417 129.825 26.177 128.966 27.291 127.481 C 29.231 124.941 40.541 116.561 42.441 114.921 C 44.781 112.897 48.161 112.618 50.801 114.231 C 53.141 115.681 56.281 116.111 57.801 116.671 C 60.801 117.811 71.031 104.251 74.121 101.091 C 77.224 97.903 82.394 98.065 85.291 101.441 C 86.991 103.551 100.751 116.061 105.261 120.201 C 106.013 120.876 107.183 120.755 107.781 119.941 C 109.011 118.321 111.181 116.151 113.571 116.941 C 117.221 118.201 122.381 127.841 129.781 135.421 C 131.178 133.915 132.206 132.103 132.781 130.131 C 131.909 130.458 131.004 130.686 130.081 130.811 C 130.081 130.811 133.241 126.431 133.331 124.351 C 133.331 124.351 133.111 124.751 131.331 124.991 C 132.802 122.86 133.954 120.525 134.751 118.061 C 135.545 120.524 136.694 122.859 138.161 124.991 C 136.391 124.751 136.161 124.351 136.161 124.351 C 136.231 126.431 139.391 130.811 139.391 130.811 C 138.472 130.685 137.57 130.457 136.701 130.131 C 137.421 133.361 140.701 136.501 140.701 136.501 C 139.375 136.565 138.072 136.137 137.041 135.301 C 137.51 137.49 138.474 139.543 139.861 141.301 C 140.263 140.891 140.641 140.456 140.991 140.001 C 141.991 137.291 141.991 118.591 140.511 111.001 L 122.081 14.061 L 8.751 14.061 L -9.739 111.061 C -11.009 117.691 -11.479 124.449 -11.139 131.191 C -10.036 129.567 -9.174 127.792 -8.579 125.921 Z"/><path class="cls-1" d="M 72.291 300.901 C 72.291 300.221 72.231 299.531 72.231 298.841 L 72.231 210.501 C 70.651 210.591 69.051 210.641 67.451 210.641 C 64.495 210.638 61.541 210.478 58.601 210.161 L 58.601 298.841 C 58.601 299.531 58.601 300.221 58.531 300.901 C 57.531 316.961 43.531 329.161 27.481 329.161 L -0.379 329.161 L -0.379 340.871 L 131.281 340.871 L 131.281 329.161 L 103.341 329.161 C 87.251 329.161 73.301 316.961 72.291 300.901 Z"/><path class="cls-1" d="M 115.641 188.221 C 113.641 190.094 111.568 191.868 109.421 193.541 C 105.761 194.286 102.036 194.665 98.301 194.671 C 96.771 194.671 95.231 194.611 93.701 194.491 C 80.701 193.491 68.891 188.351 57.431 183.401 C 52.151 181.131 47.161 178.981 42.061 177.201 C 31.582 173.335 19.98 173.905 9.931 178.781 C 9.101 179.171 8.331 179.591 7.581 180.001 C 6.751 179.001 5.941 177.941 5.161 176.881 C 6.091 176.351 7.071 175.881 8.111 175.331 C 15.798 171.92 24.223 170.513 32.601 171.241 C 35.243 171.453 37.861 171.905 40.421 172.591 L 40.491 172.591 L 41.681 172.931 C 45.726 173.956 49.715 175.191 53.631 176.631 C 57.701 178.301 61.691 180.181 65.691 182.001 C 75.871 186.621 87.151 190.841 98.581 190.751 C 104.361 190.748 110.109 189.895 115.641 188.221 Z"/><path class="cls-1" d="M 112.151 124.231 C 106.531 128.411 102.701 135.761 100.301 141.541 C 99.33 143.941 97.849 146.1 95.961 147.871 L 95.751 148.061 C 100.821 148.061 110.191 147.561 110.571 146.541 C 110.951 145.521 108.791 139.201 108.791 139.201 C 108.791 139.201 119.181 136.921 119.181 135.651 C 119.181 134.381 111.671 130.971 111.581 128.811 C 111.636 127.386 112.038 125.996 112.751 124.761 C 112.882 124.465 112.643 124.139 112.322 124.174 C 112.261 124.18 112.203 124.2 112.151 124.231 Z"/><path class="cls-1" d="M 81.521 110.181 C 80.465 108.573 78.144 108.471 76.951 109.981 C 73.211 114.741 66.851 122.851 62.201 128.981 C 59.461 132.561 55.991 136.101 47.521 146.311 C 46.797 147.298 47.412 148.698 48.629 148.832 C 48.67 148.837 48.71 148.84 48.751 148.841 C 57.847 148.849 66.595 145.346 73.171 139.061 C 79.961 132.531 82.661 129.061 80.041 130.381 C 75.551 132.571 72.131 134.741 72.131 134.741 C 72.131 134.741 73.421 132.951 75.131 130.891 C 76.841 128.831 85.971 120.511 82.701 119.301 C 79.431 118.091 76.201 120.441 76.011 119.821 C 75.821 119.201 82.191 111.181 81.521 110.181 Z"/></g></g></svg>