<?xml version="1.0" encoding="utf-8"?>
<svg xmlns="http://www.w3.org/2000/svg" viewBox="0 0 1146.47 326.81" xmlns:bx="https://boxy-svg.com" width="1146.47px" height="326.81px"><defs><style>.cls-1{fill:#d2d296;}</style><bx:export><bx:file format="svg" path="word-dark.svg"/></bx:export></defs><g id="Layer_1" data-name="Layer 1"><g transform="matrix(1.123065, 0, 0, 1.123065, -215.325012, -20.137512)"><path class="cls-1" d="M335.1,199.07H283.59l-9.49,26.27H257.83l42.7-117.43h17.8l42.53,117.43H344.59Zm-25.75-72.18L288,186.53h42.7Z"/><path class="cls-1" d="M379.5,100h15.42V225.34H379.5Z"/><path class="cls-1" d="M459.15,107.23h80v12.54h-32.2V225.34H491.52V119.77H459.15Z"/><path class="cls-1" d="M598.27,226.86c-26.43,0-45.92-18.64-45.92-48.12,0-29.32,18.81-47.79,45.92-47.79,27,0,44.57,19,44.57,44.4a83.32,83.32,0,0,1-.51,9.32H568.11c1.19,18.81,14.4,29.14,30.16,29.14,13.9,0,22.71-7.11,26.1-17.11H641C636.23,213.65,621.32,226.86,598.27,226.86Zm-30-54.73h58.63C627.08,154,613.52,144,597.6,144,582.51,144,570,154,568.28,172.13Z"/><path class="cls-1" d="M678.6,225.34H663.18V132.48H678.6v15.08c5.25-10.34,15.25-16.77,30-16.77v15.92h-4.07c-14.74,0-25.92,6.61-25.92,28.13Z"/><path class="cls-1" d="M741.81,225.34H726.39V132.48h15.42v15.08c5.25-10.34,15.25-16.77,30-16.77v15.92h-4.07c-14.74,0-25.92,6.61-25.92,28.13Z"/><path class="cls-1" d="M827.89,131c17.28,0,29.14,8.81,34.57,18.47V132.48h15.59v92.86H862.46V208.06c-5.6,10-17.63,18.8-34.74,18.8-24.74,0-43.89-19.48-43.89-48.29C783.83,149.59,803,131,827.89,131Zm3.05,13.39c-17,0-31.35,12.37-31.35,34.23s14.4,34.74,31.35,34.74,31.52-12.71,31.52-34.57C862.46,157.22,847.88,144.34,830.94,144.34Z"/><path class="cls-1" d="M960.92,145l-45.25,67.61h45.58v12.71h-63.2V212.63L943.12,145H898.39V132.48h62.53Z"/><path class="cls-1" d="M1038,145l-45.24,67.61h45.58v12.71H975.15V212.63L1020.23,145H975.49V132.48H1038Z"/><path class="cls-1" d="M1098.86,226.86c-26.27,0-46.27-18.64-46.27-48.12,0-29.32,20.68-47.79,46.94-47.79,26.44,0,46.94,18.47,46.94,47.79C1146.47,208.22,1125.29,226.86,1098.86,226.86Zm0-13.55c16.09,0,31.85-11,31.85-34.57,0-23.39-15.42-34.4-31.35-34.4-16.26,0-31,11-31,34.4C1068.35,202.29,1082.76,213.31,1098.86,213.31Z"/></g></g></svg>